Coordinates
version=1
nRows=60
nColumns=12
inDegrees=yes

Units are S.I. units (second, meters, Newtons, ...)
Angles are in degrees

endheader
time	SC_y	SC_z	SC_x	AC_y	AC_z	AC_x	GH_y	GH_z	GH_yy	EL_x	PS_y
       0.0              -21.08          13.47          59.37          54.44          5.019         -14.26          140.1         -8.858          79.25          108.6          30.34
   0.03152              -21.09          13.47          59.37          54.44          5.016         -14.26          140.1         -8.846          79.24          108.6          30.35
   0.06305              -21.09          13.48          59.36          54.44          5.014         -14.26          140.1         -8.833          79.22          108.5          30.37
   0.09457              -21.09          13.48          59.36          54.44          5.011         -14.26          140.1         -8.819          79.21          108.5          30.38
    0.1261               -21.1          13.48          59.35          54.45          5.008         -14.25          140.1         -8.804          79.19          108.5          30.39
    0.1576               -21.1          13.48          59.34          54.45          5.005         -14.25          140.1         -8.788          79.18          108.5           30.4
    0.1891               -21.1          13.48          59.34          54.45          5.002         -14.25          140.1         -8.771          79.16          108.5          30.42
    0.2207              -21.11          13.49          59.33          54.45          4.999         -14.25          140.1         -8.753          79.14          108.5          30.43
    0.2522              -21.11          13.49          59.32          54.46          4.995         -14.25          140.1         -8.733          79.12          108.5          30.45
    0.2837              -21.12          13.49          59.31          54.46          4.991         -14.25          140.1         -8.712           79.1          108.4          30.47
    0.3152              -21.12           13.5           59.3          54.46          4.987         -14.25          140.1          -8.69          79.08          108.4          30.49
    0.3468              -21.13           13.5          59.29          54.47          4.982         -14.24          140.1         -8.666          79.06          108.4          30.51
    0.3783              -21.13           13.5          59.28          54.47          4.977         -14.24          140.1          -8.64          79.03          108.4          30.53
    0.4098              -21.14          13.51          59.27          54.48          4.972         -14.24          140.1         -8.612           79.0          108.4          30.56
    0.4413              -21.15          13.51          59.26          54.48          4.966         -14.24          140.1         -8.581          78.97          108.3          30.58
    0.4728              -21.15          13.52          59.24          54.48          4.959         -14.24          140.1         -8.548          78.94          108.3          30.61
    0.5044              -21.16          13.52          59.23          54.49          4.953         -14.23          140.1         -8.513          78.91          108.3          30.64
    0.5359              -21.17          13.53          59.21           54.5          4.945         -14.23          140.1         -8.474          78.87          108.2          30.67
    0.5674              -21.18          13.54           59.2           54.5          4.937         -14.23          140.1         -8.431          78.83          108.2          30.71
    0.5989              -21.19          13.54          59.18          54.51          4.928         -14.22          140.1         -8.384          78.78          108.1          30.75
    0.6305               -21.2          13.55          59.16          54.52          4.918         -14.22          140.1         -8.333          78.73          108.1           30.8
     0.662              -21.22          13.56          59.13          54.53          4.908         -14.22          140.1         -8.277          78.67          108.1          30.84
    0.6935              -21.23          13.57          59.11          54.53          4.896         -14.21          140.1         -8.214          78.61          108.0           30.9
     0.725              -21.25          13.58          59.08          54.54          4.882         -14.21          140.1         -8.145          78.54          107.9          30.96
    0.7566              -21.26          13.59          59.05          54.56          4.868          -14.2          140.1         -8.069          78.47          107.9          31.02
    0.7881              -21.28          13.61          59.01          54.57          4.851         -14.19          140.1         -7.983          78.38          107.8           31.1
    0.8196               -21.3          13.62          58.97          54.58          4.833         -14.19          140.1         -7.887          78.29          107.7          31.18
    0.8511              -21.33          13.64          58.93           54.6          4.812         -14.18          140.1         -7.779          78.18          107.6          31.27
    0.8826              -21.36          13.66          58.88          54.62          4.789         -14.17          140.1         -7.657          78.06          107.5          31.38
    0.9142              -21.39          13.68          58.82          54.64          4.763         -14.16          140.1         -7.519          77.93          107.4           31.5
    0.9457              -21.42           13.7          58.76          54.66          4.733         -14.15          140.1         -7.361          77.77          107.2          31.63
    0.9772              -21.47          13.73          58.68          54.69          4.698         -14.14          140.1         -7.179          77.59          107.1          31.79
     1.009              -21.51          13.76           58.6          54.72          4.658         -14.12          140.0          -6.97          77.38          106.9          31.97
      1.04              -21.57           13.8           58.5          54.76          4.611          -14.1          140.0         -6.727          77.14          106.7          32.18
     1.072              -21.63          13.84          58.38           54.8          4.557         -14.08          140.0         -6.442          76.86          106.4          32.42
     1.103              -21.71           13.9          58.24          54.85          4.493         -14.06          140.0         -6.107          76.53          106.1          32.71
     1.135               -21.8          13.96          58.08          54.91          4.417         -14.03          140.0         -5.708          76.14          105.8          33.05
     1.166              -21.91          14.03          57.88          54.98          4.325         -13.99          140.0          -5.23          75.67          105.4          33.47
     1.198              -22.04          14.12          57.64          55.07          4.215         -13.95          139.9         -4.652           75.1          104.8          33.96
     1.229               -22.2          14.23          57.35          55.17           4.08          -13.9          139.9         -3.945           74.4          104.2          34.57
     1.261               -22.4          14.36           57.0           55.3          3.913         -13.84          139.9         -3.074          73.54          103.4          35.32
     1.292              -22.64          14.53          56.55          55.47          3.706         -13.76          139.8         -1.987          72.47          102.5          36.26
     1.324              -22.95          14.74          55.99          55.67          3.444         -13.66          139.8        -0.6171          71.11          101.3          37.43
     1.355              -23.35          15.01          55.27          55.93          3.111         -13.53          139.7          1.124           69.4          99.72          38.93
     1.387              -23.85          15.36          54.36          56.27          2.686         -13.37          139.6          3.352           67.2          97.75          40.85
     1.419               -24.5           15.8          53.18           56.7          2.139         -13.16          139.4          6.212          64.37          95.21          43.31
      1.45              -25.33          16.36          51.68          57.24          1.441         -12.89          139.3          9.864          60.77          91.97          46.45
     1.482              -26.37          17.07           49.8          57.93         0.5636         -12.55          139.1          14.46          56.24           87.9           50.4
     1.513              -27.64          17.93           47.5          58.77        -0.5058         -12.14          138.8          20.05          50.71          82.94          55.22
     1.545              -29.11          18.94          44.83          59.74         -1.745         -11.67          138.5          26.54          44.31          77.19           60.8
     1.576              -30.71          20.02          41.95          60.79         -3.088         -11.16          138.2          33.57          37.38          70.96          66.84
     1.608               -32.3          21.11          39.06          61.84          -4.43         -10.64          137.9          40.59          30.45          64.73          72.89
     1.639              -33.77          22.11           36.4          62.82          -5.67         -10.17          137.6          47.08          24.04          58.98          78.47
     1.671              -35.04          22.97           34.1          63.65         -6.739          -9.76          137.3          52.67          18.52          54.02          83.28
     1.702              -36.08          23.68          32.21          64.34         -7.617         -9.424          137.1          57.27          13.99          49.95          87.24
     1.734              -36.91          24.24          30.71          64.89         -8.314         -9.157          136.9          60.92          10.38          46.71          90.38
     1.765              -37.56          24.69          29.54          65.32         -8.861         -8.948          136.8          63.78           7.56          44.18          92.84
     1.797              -38.06          25.03          28.62          65.65         -9.287         -8.785          136.7          66.01          5.361           42.2          94.76
     1.828              -38.46           25.3          27.91          65.91         -9.619         -8.657          136.6          67.75          3.643          40.66          96.25
      1.86              -38.77          25.51          27.35          66.12         -9.881         -8.557          136.5          69.12          2.291          39.45          97.43
